<svg id="visual" viewBox="0 0 900 300" width="900" height="300" xmlns="http://www.w3.org/2000/svg" xmlns:xlink="http://www.w3.org/1999/xlink" version="1.1"><rect x="0" y="0" width="900" height="300" fill="#001220"></rect><path d="M0 79L21.5 81.2C43 83.3 86 87.7 128.8 92.2C171.7 96.7 214.3 101.3 257.2 99.5C300 97.7 343 89.3 385.8 91.8C428.7 94.3 471.3 107.7 514.2 114.7C557 121.7 600 122.3 642.8 121.7C685.7 121 728.3 119 771.2 116.2C814 113.3 857 109.7 878.5 107.8L900 106L900 0L878.5 0C857 0 814 0 771.2 0C728.3 0 685.7 0 642.8 0C600 0 557 0 514.2 0C471.3 0 428.7 0 385.8 0C343 0 300 0 257.2 0C214.3 0 171.7 0 128.8 0C86 0 43 0 21.5 0L0 0Z" fill="#0036ff"></path><path d="M0 91L21.5 89.2C43 87.3 86 83.7 128.8 85.3C171.7 87 214.3 94 257.2 91.7C300 89.3 343 77.7 385.8 73.2C428.7 68.7 471.3 71.3 514.2 75.3C557 79.3 600 84.7 642.8 86.3C685.7 88 728.3 86 771.2 82.2C814 78.3 857 72.7 878.5 69.8L900 67L900 0L878.5 0C857 0 814 0 771.2 0C728.3 0 685.7 0 642.8 0C600 0 557 0 514.2 0C471.3 0 428.7 0 385.8 0C343 0 300 0 257.2 0C214.3 0 171.7 0 128.8 0C86 0 43 0 21.5 0L0 0Z" fill="#0061ff"></path><path d="M0 53L21.5 52.5C43 52 86 51 128.8 52.2C171.7 53.3 214.3 56.7 257.2 61.2C300 65.7 343 71.3 385.8 71.7C428.7 72 471.3 67 514.2 63C557 59 600 56 642.8 54.3C685.7 52.7 728.3 52.3 771.2 56.3C814 60.3 857 68.7 878.5 72.8L900 77L900 0L878.5 0C857 0 814 0 771.2 0C728.3 0 685.7 0 642.8 0C600 0 557 0 514.2 0C471.3 0 428.7 0 385.8 0C343 0 300 0 257.2 0C214.3 0 171.7 0 128.8 0C86 0 43 0 21.5 0L0 0Z" fill="#0081ff"></path><path d="M0 40L21.5 42.5C43 45 86 50 128.8 49.3C171.7 48.7 214.3 42.3 257.2 40.2C300 38 343 40 385.8 38.8C428.7 37.7 471.3 33.3 514.2 32.8C557 32.3 600 35.7 642.8 39.3C685.7 43 728.3 47 771.2 49.3C814 51.7 857 52.3 878.5 52.7L900 53L900 0L878.5 0C857 0 814 0 771.2 0C728.3 0 685.7 0 642.8 0C600 0 557 0 514.2 0C471.3 0 428.7 0 385.8 0C343 0 300 0 257.2 0C214.3 0 171.7 0 128.8 0C86 0 43 0 21.5 0L0 0Z" fill="#009bff"></path><path d="M0 29L21.5 29.2C43 29.3 86 29.7 128.8 29C171.7 28.3 214.3 26.7 257.2 23.7C300 20.7 343 16.3 385.8 16.8C428.7 17.3 471.3 22.7 514.2 26.3C557 30 600 32 642.8 33.2C685.7 34.3 728.3 34.7 771.2 31C814 27.3 857 19.7 878.5 15.8L900 12L900 0L878.5 0C857 0 814 0 771.2 0C728.3 0 685.7 0 642.8 0C600 0 557 0 514.2 0C471.3 0 428.7 0 385.8 0C343 0 300 0 257.2 0C214.3 0 171.7 0 128.8 0C86 0 43 0 21.5 0L0 0Z" fill="#00b2ff"></path></svg>